<svg width="494" height="87" viewBox="0 0 494 87" fill="none" xmlns="http://www.w3.org/2000/svg">
<g clip-path="url(#clip0_1_2)">
<rect x="297" width="197" height="87" rx="20" fill="#228BE6"/>
<path d="M21.632 9.984C26.048 9.984 30.624 10.944 35.36 12.864L34.112 20.256L32.768 20.64C30.912 19.232 28.928 18.144 26.816 17.376C24.768 16.608 22.72 16.224 20.672 16.224C18.304 16.224 16.224 16.704 14.432 17.664C12.704 18.624 11.36 19.872 10.4 21.408C9.504 22.944 9.056 24.544 9.056 26.208C9.056 27.936 9.568 29.472 10.592 30.816C11.68 32.096 13.024 33.216 14.624 34.176C16.224 35.136 18.4 36.288 21.152 37.632C24.608 39.232 27.392 40.736 29.504 42.144C31.616 43.488 33.408 45.216 34.88 47.328C36.416 49.44 37.184 52 37.184 55.008C37.184 58.208 36.32 61.152 34.592 63.84C32.864 66.528 30.432 68.672 27.296 70.272C24.16 71.872 20.576 72.672 16.544 72.672C13.856 72.672 11.04 72.32 8.096 71.616C5.216 70.848 2.528 69.76 0.0320003 68.352L0.992 60.48L2.048 60C4.288 62.176 6.752 63.808 9.44 64.896C12.192 65.92 14.816 66.432 17.312 66.432C19.744 66.432 21.888 65.952 23.744 64.992C25.664 64.032 27.104 62.752 28.064 61.152C29.088 59.552 29.6 57.856 29.6 56.064C29.6 53.376 28.576 51.232 26.528 49.632C24.48 47.968 21.376 46.176 17.216 44.256C13.824 42.592 11.104 41.12 9.056 39.84C7.008 38.496 5.248 36.8 3.776 34.752C2.304 32.64 1.568 30.08 1.568 27.072C1.568 23.936 2.4 21.056 4.064 18.432C5.792 15.808 8.16 13.76 11.168 12.288C14.24 10.752 17.728 9.984 21.632 9.984ZM68.5453 23.712C73.8573 23.712 78.4653 24.832 82.3693 27.072L81.0253 33.696L80.1613 33.984C78.5613 32.64 76.7053 31.584 74.5933 30.816C72.4813 30.048 70.2093 29.664 67.7773 29.664C63.0413 29.664 59.4253 31.2 56.9293 34.272C54.4333 37.28 53.1853 41.792 53.1853 47.808C53.1853 53.888 54.4333 58.528 56.9293 61.728C59.4253 64.928 63.0413 66.528 67.7773 66.528C70.0813 66.528 72.3853 66.144 74.6893 65.376C77.0573 64.544 79.1693 63.456 81.0253 62.112L81.8893 62.4L81.2173 69.024C76.8653 71.392 72.2893 72.576 67.4893 72.576C60.4493 72.576 55.0413 70.496 51.2653 66.336C47.4893 62.112 45.6013 56.128 45.6013 48.384C45.6013 40.512 47.5853 34.432 51.5533 30.144C55.5853 25.856 61.2493 23.712 68.5453 23.712ZM101.083 57.024L101.275 72H94.1713L94.4593 57.6L94.1713 24.192H101.371L101.083 57.024ZM148.199 65.856L148.775 66.432L148.103 72H119.015L119.303 57.6L119.015 24.192H148.295L148.775 24.768L148.199 30.336L136.103 29.952L126.119 30.048L126.023 44.544L135.527 44.64L143.879 44.352L144.359 45.024L143.783 50.688L134.951 50.4L126.023 50.496L125.927 57.024L126.023 66.144L135.431 66.24L148.199 65.856ZM200.382 57.696L200.478 72H192.798L167.646 35.52H167.166L167.07 56.064L167.262 72H160.734L161.022 57.888L160.83 24.192H168.414L193.566 60.672H194.238L194.046 24.48L200.67 24L200.382 57.696ZM234.952 23.712C240.264 23.712 244.872 24.832 248.776 27.072L247.432 33.696L246.568 33.984C244.968 32.64 243.112 31.584 241 30.816C238.888 30.048 236.616 29.664 234.184 29.664C229.448 29.664 225.832 31.2 223.336 34.272C220.84 37.28 219.592 41.792 219.592 47.808C219.592 53.888 220.84 58.528 223.336 61.728C225.832 64.928 229.448 66.528 234.184 66.528C236.488 66.528 238.792 66.144 241.096 65.376C243.464 64.544 245.576 63.456 247.432 62.112L248.296 62.4L247.624 69.024C243.272 71.392 238.696 72.576 233.896 72.576C226.856 72.576 221.448 70.496 217.672 66.336C213.896 62.112 212.008 56.128 212.008 48.384C212.008 40.512 213.992 34.432 217.96 30.144C221.992 25.856 227.656 23.712 234.952 23.712ZM289.762 65.856L290.338 66.432L289.666 72H260.578L260.866 57.6L260.578 24.192H289.858L290.338 24.768L289.762 30.336L277.666 29.952L267.682 30.048L267.586 44.544L277.09 44.64L285.442 44.352L285.922 45.024L285.346 50.688L276.514 50.4L267.586 50.496L267.49 57.024L267.586 66.144L276.994 66.24L289.762 65.856Z" fill="black"/>
<path d="M349.148 66.24L348.476 72H318.14L318.62 53.472L318.14 10.464H326.012L325.532 52.8L325.82 65.568H348.572L349.148 66.24ZM364.99 57.024L365.182 72H358.078L358.366 57.6L358.078 24.192H365.278L364.99 57.024ZM422.569 57.696L422.665 72H414.985L389.833 35.52H389.353L389.257 56.064L389.449 72H382.921L383.209 57.888L383.017 24.192H390.601L415.753 60.672H416.425L416.233 24.48L422.857 24L422.569 57.696ZM455.661 46.56C462.445 54.88 469.645 62.816 477.261 70.368L477.069 71.424C475.085 72.064 472.781 72.544 470.157 72.864L469.005 72.384C460.813 63.168 453.741 54.72 447.789 47.04V46.464L464.301 28.416L467.469 24.192L476.013 24.096L455.661 46.56ZM447.021 57.024L447.213 72H440.109L440.397 57.6L440.109 24.192H447.309L447.021 57.024Z" fill="white"/>
</g>
<defs>
<clipPath id="clip0_1_2">
<rect width="494" height="87" fill="white"/>
</clipPath>
</defs>
</svg>
